<svg width="28" height="25" viewBox="0 0 28 25" fill="none" xmlns="http://www.w3.org/2000/svg">
<path d="M21.3283 5.96215C22.3524 7.49479 22.9748 9.25395 23.1465 11.0784H23.0704C22.8988 9.26898 22.281 7.52444 21.2652 6.00428C20.0563 4.19493 18.3379 2.7847 16.3274 1.95195C14.317 1.11919 12.1048 0.901306 9.97047 1.32584C7.83619 1.75038 5.87573 2.79827 4.337 4.337C2.79827 5.87573 1.75038 7.83619 1.32584 9.97047C0.901306 12.1048 1.11919 14.317 1.95195 16.3274C2.7847 18.3379 4.19493 20.0563 6.00428 21.2652C7.483 22.2533 9.17403 22.8648 10.9305 23.0553C10.984 23.0611 11.0283 23.0858 11.0549 23.1133C11.0689 23.1278 11.0745 23.1387 11.0768 23.1464C9.25296 22.9744 7.49436 22.3521 5.96215 21.3283C4.14032 20.111 2.72038 18.3808 1.88189 16.3565C1.04339 14.3322 0.824003 12.1047 1.25146 9.95568C1.67893 7.80669 2.73404 5.83271 4.28337 4.28337C5.83271 2.73404 7.80669 1.67893 9.95568 1.25146C12.1047 0.824003 14.3322 1.04339 16.3565 1.88189C18.3808 2.72038 20.111 4.14032 21.3283 5.96215Z" stroke="black" stroke-width="2.07719"/>
<path d="M19.0408 9.52051L22.3235 12.8032C22.6615 13.1412 23.2095 13.1412 23.5475 12.8032L26.8303 9.52051" stroke="black" stroke-width="2.07719" stroke-linecap="round"/>
</svg>
