<svg width="20" height="20" viewBox="0 0 20 20" fill="none" xmlns="http://www.w3.org/2000/svg">
<path d="M16.9409 4.74107H16.7916L16.8145 4.12015C16.8339 3.59445 16.6435 3.09644 16.2785 2.71767C15.9135 2.33895 15.4228 2.13038 14.8968 2.13038H12.3501V1.20516C12.3501 0.540623 11.8094 0 11.1449 0H8.85507C8.19054 0 7.64997 0.540623 7.64997 1.20516V2.13033H5.10324C4.57722 2.13033 4.08652 2.33895 3.72152 2.71767C3.35646 3.09639 3.16613 3.5945 3.18552 4.12009L3.20843 4.74101H3.05914C2.62382 4.74101 2.2709 5.09393 2.2709 5.52925C2.2709 5.96456 2.62382 6.31748 3.05914 6.31748H3.2666L3.70323 18.1516C3.74148 19.1881 4.58384 19.9999 5.62095 19.9999H14.3791C15.4162 19.9999 16.2586 19.1881 16.2968 18.1516L16.7335 6.31748H16.9409C17.3762 6.31748 17.7291 5.96456 17.7291 5.52925C17.7291 5.09393 17.3762 4.74107 16.9409 4.74107ZM9.22643 1.57647H10.7736V2.13033H9.22643V1.57647ZM4.76088 4.06203C4.7562 3.93539 4.81884 3.85078 4.85657 3.81163C4.8943 3.77248 4.97654 3.7068 5.10324 3.7068H14.8968C15.0235 3.7068 15.1057 3.77248 15.1434 3.81163C15.1812 3.85078 15.2438 3.93539 15.2391 4.06203L15.214 4.74107H4.78595L4.76088 4.06203ZM14.7214 18.0935C14.7145 18.2785 14.5642 18.4235 14.3791 18.4235H13.5533V11.8829C13.5533 11.4476 13.2004 11.0946 12.7651 11.0946C12.3298 11.0946 11.9768 11.4476 11.9768 11.8829V18.4235H10.7882V11.8829C10.7882 11.4476 10.4353 11.0946 9.99995 11.0946C9.56464 11.0946 9.21172 11.4476 9.21172 11.8829V18.4235H8.02301V11.8829C8.02301 11.4476 7.67009 11.0946 7.23478 11.0946C6.79946 11.0946 6.44654 11.4476 6.44654 11.8829V18.4235H5.62084C5.43571 18.4235 5.28532 18.2786 5.27849 18.0936L4.84401 6.31753H15.1558L14.7214 18.0935Z" fill="black"/>
</svg>
