<svg width="25" height="25" viewBox="0 0 25 25" fill="none" xmlns="http://www.w3.org/2000/svg">
<path d="M10.4741 3.28595C10.4741 2.03829 11.4856 1.02686 12.7332 1.02686H20.9481C22.1958 1.02686 23.2072 2.03829 23.2072 3.28595V11.7827C23.2072 12.3819 22.9692 12.9565 22.5455 13.3801L17.8985 18.0272C17.4748 18.4508 16.9002 18.6888 16.3011 18.6888H12.7332C11.4856 18.6888 10.4741 17.6774 10.4741 16.4298V3.28595Z" stroke="black" stroke-width="2.05372"/>
<rect x="13.1438" y="4.51831" width="7.39339" height="2.05372" fill="black"/>
<rect x="13.1438" y="7.39343" width="5.75041" height="2.05372" fill="black"/>
<rect x="13.1438" y="10.2688" width="7.39339" height="2.05372" fill="black"/>
<path fill-rule="evenodd" clip-rule="evenodd" d="M8.6256 4.51831H3.28595C1.47117 4.51831 0 5.98948 0 7.80426V20.9481C0 22.7628 1.47117 24.234 3.28595 24.234H6.85379C7.72528 24.234 8.56107 23.8878 9.17731 23.2716L11.9117 20.5372H11.9115C11.1013 20.5372 10.3596 20.2439 9.7867 19.7578L7.72511 21.8194C7.49402 22.0505 7.1806 22.1803 6.85379 22.1803H3.28595C2.60541 22.1803 2.05372 21.6286 2.05372 20.9481V7.80426C2.05372 7.12372 2.60541 6.57203 3.28595 6.57203H8.6256V4.51831ZM8.6256 9.03627H3.69653V11.09H8.6256V9.03627ZM8.6256 11.9116H3.69653V13.9653H8.6256V11.9116ZM8.6256 14.7868H3.69653V16.8405H8.6256V14.7868Z" fill="black"/>
</svg>
